<svg width="161" height="161" viewBox="0 0 161 161" fill="none" xmlns="http://www.w3.org/2000/svg">
<circle cx="80.5" cy="80.5" r="80.5" fill="#0EC244" fill-opacity="0.05"/>
<circle cx="80.5" cy="80.5" r="62.5" fill="#0EC244" fill-opacity="0.1"/>
<circle cx="82.4207" cy="80.4207" r="48.4207" fill="url(#paint0_linear_1_2145)"/>
<mask id="mask0_1_2145" style="mask-type:alpha" maskUnits="userSpaceOnUse" x="34" y="32" width="97" height="97">
<circle cx="82.4207" cy="80.4207" r="48.4207" fill="url(#paint1_linear_1_2145)"/>
</mask>
<g mask="url(#mask0_1_2145)">
<path d="M118.917 109.368C117.169 107.563 115.832 105.403 115.009 103.028C114.981 103.084 114.943 103.14 114.915 103.196C115.13 103.149 115.336 103.112 115.551 103.065C115.673 103.037 115.691 102.869 115.588 102.813C114.784 102.382 114.691 100.998 114.513 100.204C114.279 99.1657 114.064 98.1278 113.877 97.0898C113.484 94.9578 113.185 92.8071 112.97 90.6471C112.895 90.6845 112.83 90.7312 112.755 90.7686C114.317 91.6944 115.803 92.7323 117.197 93.9012C118.45 94.9578 119.703 96.0893 120.591 97.4732C121.545 98.9413 122.003 100.718 122.284 102.42C122.602 104.299 122.602 106.216 122.153 108.077C122.106 108.255 122.377 108.33 122.424 108.152C123.125 105.319 122.77 102.298 121.872 99.5491C121.003 96.9215 119.039 95.0233 116.935 93.3214C115.663 92.2928 114.307 91.3577 112.905 90.5255C112.821 90.4788 112.68 90.5349 112.69 90.6471C112.914 92.9567 113.241 95.2477 113.671 97.52C113.887 98.6514 114.12 99.7829 114.392 100.896C114.569 101.653 114.691 102.644 115.448 103.056C115.458 102.972 115.467 102.887 115.486 102.803C115.27 102.85 115.065 102.887 114.85 102.934C114.775 102.953 114.728 103.037 114.756 103.102C115.598 105.524 116.954 107.722 118.74 109.564C118.852 109.695 119.048 109.498 118.917 109.368Z" fill="#E8E8E8"/>
<path d="M112.998 90.8808C116.383 95.7807 118.72 101.354 119.842 107.198C119.88 107.376 120.151 107.301 120.114 107.123C118.982 101.251 116.635 95.6498 113.231 90.7312C113.138 90.5909 112.895 90.7312 112.998 90.8808Z" fill="#E8E8E8"/>
<path d="M114.12 98.9413C115.532 99.2499 117.019 99.5959 118.001 100.746C118.113 100.886 118.319 100.681 118.197 100.55C117.187 99.3621 115.654 98.9881 114.195 98.6702C114.018 98.6328 113.943 98.9039 114.12 98.9413Z" fill="#E8E8E8"/>
<path d="M117.842 98.9598C117.739 97.6507 117.945 96.3509 118.468 95.1446C118.543 94.9763 118.3 94.8361 118.225 95.0044C117.683 96.2574 117.449 97.5946 117.561 98.9598C117.58 99.1375 117.861 99.1375 117.842 98.9598Z" fill="#E8E8E8"/>
<path d="M120.096 96.3886C120.769 92.1994 123.64 88.9453 126.389 85.9062C126.315 85.8595 126.23 85.8127 126.156 85.766C125.51 88.0756 127.025 90.217 127.577 92.3864C127.876 93.5833 128.016 94.8176 128.044 96.0519C128.063 96.6597 128.054 97.2769 128.035 97.8847C128.026 98.1839 128.026 98.4925 127.96 98.7824C127.867 99.1845 127.418 99.811 126.941 99.3902C126.885 99.465 126.829 99.5398 126.773 99.6146C127.596 100.045 127.296 101.279 127.165 101.999C126.997 102.972 126.717 103.897 126.09 104.683C125.183 105.805 123.883 106.637 123.453 108.077C123.397 108.255 123.668 108.32 123.724 108.152C124.257 106.394 126.137 105.552 126.913 103.925C127.315 103.084 127.493 102.093 127.577 101.176C127.642 100.512 127.577 99.7175 126.913 99.3808C126.782 99.3154 126.614 99.4931 126.745 99.6053C127.035 99.8671 127.437 99.8671 127.764 99.652C128.129 99.4089 128.241 98.9601 128.278 98.5393C128.428 97.1273 128.362 95.6405 128.194 94.2379C128.026 92.8352 127.652 91.5168 127.128 90.217C126.576 88.8331 126.006 87.365 126.427 85.8595C126.464 85.7286 126.286 85.6164 126.193 85.7192C123.416 88.7957 120.508 92.0965 119.825 96.3231C119.797 96.4914 120.068 96.5662 120.096 96.3886Z" fill="#E8E8E8"/>
<path d="M125.837 86.7197C123.892 91.5167 122.685 96.5849 122.255 101.747C122.237 101.924 122.517 101.924 122.536 101.747C122.966 96.6129 124.172 91.5728 126.108 86.7945C126.173 86.6356 125.902 86.5608 125.837 86.7197Z" fill="#E8E8E8"/>
<path d="M99.1122 101.41C101.403 101.905 103.638 100.802 105.845 100.363C108.276 99.8857 110.782 99.8857 113.223 100.325C113.4 100.353 113.475 100.091 113.298 100.054C111.035 99.6426 108.725 99.6145 106.462 99.9698C105.303 100.157 104.18 100.475 103.058 100.793C101.796 101.139 100.496 101.419 99.1964 101.139C99.0094 101.101 98.9346 101.363 99.1122 101.41Z" fill="#E8E8E8"/>
<path d="M127.744 100.55C129.072 100.297 130.381 100.615 131.662 100.933C132.915 101.232 134.178 101.503 135.459 101.728C137.927 102.158 140.434 102.411 142.94 102.513C143.117 102.523 143.117 102.242 142.94 102.233C140.275 102.13 137.628 101.84 135.001 101.363C133.729 101.129 132.476 100.84 131.223 100.54C130.054 100.26 128.866 100.054 127.67 100.288C127.501 100.316 127.576 100.587 127.744 100.55Z" fill="#E8E8E8"/>
<path d="M22.0519 92.7137C25.3621 91.947 28.6723 91.0586 32.0293 90.5724C35.3769 90.0955 38.7712 90.0394 42.1469 90.3293C48.6364 90.8903 54.9389 92.5922 61.2975 93.9106C64.8041 94.64 68.348 95.2385 71.9294 95.4816C72.1071 95.4909 72.1071 95.2104 71.9294 95.2011C65.3651 94.7522 58.9878 93.0784 52.5731 91.7132C46.1958 90.3667 39.7063 89.3942 33.1794 90.1422C29.3923 90.5817 25.6894 91.5823 21.9771 92.4425C21.7994 92.48 21.8742 92.7511 22.0519 92.7137Z" fill="#E8E8E8"/>
<path d="M48.6088 90.8807C54.0978 90.4038 59.4745 89.1134 64.7952 87.7295C70.2374 86.3082 75.6796 84.8681 81.1218 83.4281C86.5547 81.9974 91.9782 80.5293 97.4297 79.136C100.141 78.4441 102.881 77.8176 105.668 77.5557C108.352 77.3033 111.063 77.3407 113.747 77.5931C120.012 78.1729 126.109 79.8467 132.159 81.5112C132.337 81.5579 132.411 81.2867 132.234 81.24C126.913 79.7719 121.564 78.3038 116.075 77.5744C113.345 77.2098 110.577 77.0227 107.819 77.1349C105.107 77.2378 102.432 77.668 99.7862 78.2664C97.0931 78.8836 94.4281 79.6223 91.7537 80.3329C89.0233 81.053 86.2928 81.773 83.5624 82.493C78.0454 83.9424 72.519 85.4011 67.002 86.8505C60.952 88.4402 54.8646 90.0485 48.6088 90.5909C48.4312 90.6189 48.4312 90.8994 48.6088 90.8807Z" fill="#E8E8E8"/>
<path d="M33.5437 107.694C35.8253 107.778 38.1163 107.862 40.3979 107.946C42.6234 108.03 44.8583 108.161 47.0838 108.18C49.2532 108.199 51.3478 107.778 53.4798 107.394C55.7053 106.992 57.9588 106.703 60.2124 106.544C62.7278 106.357 65.2525 106.328 67.7679 106.431C67.9456 106.441 67.9456 106.16 67.7679 106.151C63.3543 105.964 58.9313 106.216 54.5738 106.927C52.3483 107.292 50.1415 107.853 47.888 107.899C45.6812 107.956 43.4463 107.787 41.2395 107.703C38.6774 107.61 36.1152 107.516 33.5531 107.423C33.3661 107.404 33.3661 107.684 33.5437 107.694Z" fill="#E8E8E8"/>
<path d="M30.6917 113.575C31.5052 111.443 32.9359 109.583 34.7967 108.264C34.7313 108.245 34.6658 108.227 34.6004 108.217C35.124 109.414 35.4794 110.667 35.6664 111.958C35.6944 111.902 35.7318 111.846 35.7599 111.789C35.5355 111.855 35.311 111.92 35.0773 111.986C34.9838 112.014 34.9557 112.107 34.9931 112.191C35.2549 112.818 35.5448 113.529 35.2549 114.193C35.0118 114.744 34.4882 115.156 34.1235 115.614C33.4596 116.437 32.9453 117.353 32.5525 118.326C32.4871 118.494 32.7583 118.569 32.8237 118.4C33.3474 117.082 34.1328 116.035 35.0586 114.978C35.3952 114.595 35.6477 114.174 35.6664 113.65C35.6851 113.089 35.4513 112.556 35.2362 112.051C35.2082 112.117 35.1801 112.191 35.1521 112.257C35.3765 112.191 35.6009 112.126 35.8347 112.061C35.9095 112.042 35.9469 111.967 35.9282 111.892C35.7318 110.574 35.3671 109.302 34.8341 108.077C34.8061 108.012 34.7032 107.984 34.6378 108.03C32.7115 109.405 31.2434 111.303 30.4018 113.51C30.3644 113.669 30.6263 113.744 30.6917 113.575Z" fill="#E8E8E8"/>
<path d="M26.3344 104.823C29.6072 104.187 32.9548 103.944 36.2463 104.571C37.7798 104.86 39.2947 105.197 40.8469 105.375C42.4833 105.562 44.1384 105.637 45.7842 105.702C45.9618 105.711 45.9618 105.431 45.7842 105.421C44.1384 105.347 42.4833 105.281 40.8469 105.094C39.145 104.898 37.4806 104.496 35.7881 104.206C32.6275 103.663 29.3827 103.953 26.2595 104.561C26.0819 104.589 26.1567 104.86 26.3344 104.823Z" fill="#E8E8E8"/>
<path d="M38.6681 115.941C40.5383 115.642 42.4084 115.333 44.2973 115.221C46.2142 115.109 48.0657 115.268 49.9452 115.614C51.6658 115.932 53.3303 116.082 55.0882 116.044C56.9116 115.997 58.7538 115.913 60.5304 116.39C60.7081 116.437 60.7829 116.166 60.6052 116.119C58.8847 115.651 57.1174 115.707 55.35 115.754C54.415 115.782 53.4705 115.792 52.5354 115.717C51.5723 115.642 50.6185 115.446 49.6741 115.277C47.86 114.95 46.0553 114.828 44.2038 114.941C42.3243 115.062 40.4541 115.361 38.5933 115.661C38.4156 115.698 38.4904 115.969 38.6681 115.941Z" fill="#E8E8E8"/>
<path d="M90.0702 118.176C93.5768 117.671 97.102 117.372 100.646 117.297C104.096 117.222 107.547 117.363 110.997 117.437C111.175 117.437 111.175 117.157 110.997 117.157C107.491 117.082 103.975 116.942 100.459 117.026C96.9524 117.11 93.4646 117.409 89.9954 117.905C89.8177 117.933 89.8925 118.195 90.0702 118.176Z" fill="#E8E8E8"/>
<path d="M105.611 120.187C106.948 119.616 108.388 120.308 109.763 120.243C110.053 120.224 110.352 120.187 110.633 120.093C111.016 119.962 111.371 119.756 111.783 119.738C112.494 119.7 113.157 119.972 113.868 119.859C114.046 119.831 113.971 119.56 113.793 119.588C112.998 119.719 112.222 119.326 111.437 119.504C111.082 119.579 110.764 119.766 110.418 119.869C110.062 119.962 109.698 119.981 109.333 119.972C108.033 119.915 106.733 119.42 105.462 119.962C105.312 120.009 105.452 120.252 105.611 120.187Z" fill="#E8E8E8"/>
<path d="M124.528 109.854C126.884 109.153 129.241 109.171 131.653 109.461C133.925 109.732 136.216 110.088 138.498 109.686C138.676 109.657 138.601 109.386 138.423 109.414C136.048 109.835 133.663 109.405 131.298 109.143C128.969 108.881 126.697 108.909 124.444 109.592C124.285 109.639 124.35 109.91 124.528 109.854Z" fill="#E8E8E8"/>
<path d="M115.13 56.3854C113.391 55.4503 112.26 53.6362 112.521 51.6258C112.755 49.7837 114.233 48.194 116.037 47.7639C117.88 47.3338 119.937 48.2034 120.937 49.8024C122.013 51.5136 121.779 53.7765 120.46 55.2914C118.964 57.0119 116.346 57.2737 114.457 56.0581C114.307 55.9553 114.167 56.1984 114.317 56.3012C116.075 57.4421 118.506 57.3672 120.133 56.0114C121.751 54.6648 122.349 52.3271 121.545 50.3728C120.778 48.512 118.815 47.2964 116.804 47.3805C114.822 47.474 113.026 48.9047 112.428 50.7842C111.68 53.1126 112.933 55.5064 114.999 56.6192C115.149 56.7127 115.289 56.4696 115.13 56.3854Z" fill="#E8E8E8"/>
<path d="M34.4226 76.8358C35.3764 75.9849 36.7136 76.5647 37.4243 77.4249C37.789 77.8644 38.004 78.36 38.2846 78.8463C38.4622 79.1736 38.724 79.5008 39.1168 79.5756C39.4254 79.6317 39.6778 79.5195 39.8836 79.2951C40.0145 79.1455 40.0986 78.9491 40.2295 78.7995C40.5101 78.4722 40.8747 78.5096 41.174 78.7715C41.8285 79.3419 41.8566 80.7538 43.0067 80.651C43.1844 80.6323 43.1844 80.3518 43.0067 80.3705C41.8098 80.4827 41.9501 78.4722 40.7999 78.2759C40.4633 78.2198 40.1921 78.3694 39.9864 78.6312C39.8555 78.7995 39.7713 79.0333 39.603 79.1736C39.1168 79.5756 38.6866 79.0146 38.4903 78.6312C38.0134 77.7522 37.5458 76.8358 36.6014 76.3776C35.8253 76.0036 34.8808 76.041 34.2263 76.6301C34.0954 76.7517 34.2917 76.9574 34.4226 76.8358Z" fill="#E8E8E8"/>
<path d="M97.363 64.2495C97.176 63.7446 96.9516 63.1461 97.2882 62.6505C97.5968 62.211 98.1205 62.4354 98.5599 62.2952C99.1397 62.1082 99.495 61.5378 99.654 60.9861C99.841 60.3408 99.6166 59.4993 100 58.9289C100.468 58.2276 101.477 59.0878 102.113 58.6577C102.263 58.5548 102.123 58.3117 101.973 58.4146C101.328 58.8541 100.449 57.9564 99.841 58.6764C99.3548 59.2468 99.5792 60.1164 99.4202 60.7897C99.308 61.2572 99.0555 61.7528 98.6161 61.9773C98.2327 62.1736 97.7932 61.9773 97.4098 62.1736C96.5869 62.5944 96.8487 63.6417 97.1012 64.3243C97.148 64.4833 97.4191 64.4178 97.363 64.2495Z" fill="#E8E8E8"/>
<path d="M98.3733 57.6945C98.1957 57.2269 98.2985 56.6939 98.6445 56.3199C99.0746 55.8523 99.5702 56.0394 100.103 55.8523C100.421 55.7401 100.608 55.469 100.73 55.1697C100.805 54.9827 100.851 54.7863 100.917 54.5993C100.973 54.4497 101.038 54.2814 101.151 54.1692C101.319 54.0102 101.721 53.8793 101.824 54.2346C101.88 54.403 102.142 54.3375 102.095 54.1598C101.973 53.7671 101.515 53.6268 101.16 53.8139C100.487 54.1598 100.73 55.1884 100.103 55.5344C99.7572 55.7214 99.3271 55.6092 98.9624 55.7588C98.7286 55.8617 98.5229 56.03 98.364 56.2264C98.018 56.6659 97.9058 57.2456 98.1021 57.7693C98.1582 57.9376 98.4294 57.8628 98.3733 57.6945Z" fill="#E8E8E8"/>
<path d="M106.247 67.6813C105.967 67.2792 106.051 66.7088 106.416 66.3721C106.836 65.9794 107.444 66.1571 107.734 66.6059C108.398 67.6065 106.93 68.4854 106.229 67.6532C106.107 67.5129 105.911 67.7187 106.032 67.8496C106.434 68.3265 107.182 68.3826 107.697 68.0459C108.276 67.6719 108.323 66.9145 107.921 66.3815C107.528 65.8578 106.799 65.6802 106.275 66.1103C105.78 66.5124 105.63 67.2792 106.004 67.8122C106.107 67.9711 106.35 67.8309 106.247 67.6813Z" fill="#E8E8E8"/>
<path d="M107.304 69.2335C107.042 68.8688 106.715 68.4294 106.827 67.9618C106.995 67.2698 107.818 67.4475 108.192 67.859C108.501 68.2049 108.613 68.7473 108.22 69.0746C107.921 69.327 107.463 69.3738 107.192 69.0746C107.07 68.9437 106.874 69.14 106.995 69.2709C107.369 69.673 108.005 69.6356 108.407 69.2896C108.884 68.8782 108.828 68.1956 108.454 67.7374C108.08 67.2698 107.229 66.9332 106.761 67.4662C106.238 68.0647 106.677 68.8408 107.061 69.3738C107.163 69.5234 107.407 69.3831 107.304 69.2335Z" fill="#E8E8E8"/>
<path d="M44.4195 88.7207C45.4668 89.0387 46.5328 89.2257 47.6175 89.2631C47.7951 89.2724 47.7951 88.9919 47.6175 88.9826C46.5515 88.9452 45.5042 88.7675 44.4943 88.4496C44.3166 88.3934 44.2418 88.6646 44.4195 88.7207Z" fill="#E8E8E8"/>
<path d="M114.551 81.2401C120.909 81.1934 126.894 83.5685 132.897 85.3265C134.618 85.8314 136.357 86.2896 138.115 86.6356C138.293 86.673 138.367 86.4018 138.19 86.3644C131.953 85.1301 126.071 82.4838 119.797 81.4084C118.067 81.1092 116.309 80.9409 114.551 80.9596C114.373 80.9596 114.373 81.2401 114.551 81.2401Z" fill="#E8E8E8"/>
<path d="M52.04 40.6947C52.3673 41.4802 52.7694 43.2195 53.9476 42.4434C54.3403 42.1909 54.9201 41.4522 55.3409 42.0506C55.5934 42.406 55.6121 42.8735 56.0889 43.0325C56.2573 43.0886 56.3321 42.8174 56.1638 42.7613C55.7243 42.6117 55.7243 41.9384 55.3689 41.6672C55.1352 41.4896 54.8453 41.4989 54.5928 41.6298C54.2188 41.8075 53.9476 42.2096 53.5549 42.3405C52.8535 42.5743 52.4982 41.0688 52.3112 40.6199C52.2364 40.461 51.9652 40.5264 52.04 40.6947Z" fill="#E8E8E8"/>
<path d="M54.9489 40.863C55.4726 40.4609 56.2393 40.648 56.5012 41.2558C56.6601 41.6392 56.7817 41.8636 57.2305 41.8916C57.4456 41.901 57.6794 41.8262 57.8945 41.8636C58.3433 41.9384 58.3433 42.3311 58.4181 42.6958C58.4929 43.0605 58.6612 43.3784 59.054 43.4252C59.2316 43.4439 59.2316 43.1634 59.054 43.1446C58.5397 43.0885 58.7547 42.0319 58.3526 41.7327C57.9225 41.4147 57.2773 41.8355 56.9407 41.4428C56.7817 41.2558 56.7349 41.0033 56.5666 40.8163C56.4357 40.6573 56.2581 40.5451 56.0617 40.4703C55.6409 40.302 55.1733 40.3581 54.818 40.6293C54.659 40.7321 54.7993 40.9752 54.9489 40.863Z" fill="#E8E8E8"/>
<path d="M63.3643 49.6808C63.9534 49.8023 64.5799 49.4283 64.7389 48.8298C64.8885 48.2688 64.5238 47.7358 63.9908 47.5581C62.7471 47.1373 62.0552 48.8485 63.065 49.5499C63.2147 49.6527 63.3549 49.4096 63.2053 49.3067C62.4946 48.8111 62.9341 47.5675 63.8412 47.8012C64.2339 47.9041 64.5612 48.2594 64.4864 48.6802C64.4022 49.1571 63.916 49.5031 63.4391 49.4002C63.2614 49.3722 63.1866 49.6434 63.3643 49.6808Z" fill="#E8E8E8"/>
<path d="M64.2707 50.1578C64.0463 49.9801 63.7751 49.7838 63.6816 49.4939C63.5507 49.1011 63.9248 48.6336 64.3642 48.7458C64.6728 48.83 64.8879 49.1853 64.8131 49.5032C64.7196 49.8586 64.3175 50.0362 63.9809 49.9521C63.8032 49.9053 63.7284 50.1765 63.906 50.2233C64.3642 50.3355 64.8692 50.1204 65.0562 49.6716C65.2339 49.2321 64.9907 48.6991 64.5606 48.512C64.1305 48.3344 63.6349 48.5681 63.4479 48.9796C63.186 49.55 63.6629 50.0269 64.0837 50.3542C64.2053 50.4664 64.411 50.27 64.2707 50.1578Z" fill="#E8E8E8"/>
<path d="M45.6157 68.6257C45.1855 68.2423 45.1014 67.6625 45.5222 67.2324C45.8868 66.8677 46.4292 66.8771 46.7752 67.2604C47.4952 68.0646 46.4573 69.1119 45.6063 68.5602C45.4567 68.4574 45.3164 68.7005 45.4661 68.8033C45.971 69.1306 46.663 69.0184 47.0557 68.5696C47.4578 68.102 47.3362 67.4007 46.9061 66.9893C46.4479 66.5591 45.7653 66.5872 45.3258 67.0267C44.7928 67.5597 44.877 68.3358 45.4193 68.822C45.5502 68.9436 45.7466 68.7472 45.6157 68.6257Z" fill="#E8E8E8"/>
<path d="M85.4792 42.1908C86.0215 41.0032 86.7789 39.9466 87.714 39.0395C87.8449 38.918 87.6486 38.7123 87.5177 38.8432C86.5639 39.7689 85.7971 40.8443 85.236 42.0599C85.1612 42.2095 85.4044 42.3591 85.4792 42.1908Z" fill="#E8E8E8"/>
<path d="M86.6474 42.0038C87.2084 41.3118 87.8349 40.6666 88.5082 40.0775C88.6484 39.956 88.4427 39.7596 88.3118 39.8811C87.6385 40.4703 87.0214 41.1155 86.451 41.8074C86.3388 41.9477 86.5351 42.1441 86.6474 42.0038Z" fill="#E8E8E8"/>
<path d="M87.3589 42.8454C87.6114 42.6303 87.8638 42.4246 88.1163 42.2095C88.2566 42.0973 88.0508 41.8916 87.9199 42.0132C87.6675 42.2282 87.415 42.4339 87.1625 42.649C87.0222 42.7612 87.2186 42.9576 87.3589 42.8454Z" fill="#E8E8E8"/>
</g>
<mask id="mask1_1_2145" style="mask-type:alpha" maskUnits="userSpaceOnUse" x="34" y="32" width="97" height="97">
<circle cx="82.4207" cy="80.4207" r="48.4207" fill="url(#paint2_linear_1_2145)"/>
</mask>
<g mask="url(#mask1_1_2145)">
<path d="M104.119 78.2061H103.363C103.214 78.2061 103.093 78.327 103.093 78.4762V88.6257C103.093 88.7749 103.214 88.8959 103.363 88.8959H104.119C104.268 88.8959 104.388 88.7749 104.388 88.6257V78.4762C104.388 78.327 104.268 78.2061 104.119 78.2061Z" fill="#EDEDED"/>
<path d="M99.1978 58.2012H65.052C62.5148 58.2012 60.458 60.2607 60.458 62.8014V141.789C60.458 144.329 62.5148 146.389 65.052 146.389H99.1978C101.735 146.389 103.792 144.329 103.792 141.789V62.8014C103.792 60.2607 101.735 58.2012 99.1978 58.2012Z" fill="#F4F4F4"/>
<path d="M98.5202 60.8218H93.5494V61.4205C93.5494 61.7933 93.4761 62.1623 93.3336 62.5066C93.1911 62.851 92.9822 63.1638 92.719 63.4273C92.4557 63.6907 92.1432 63.8997 91.7993 64.0422C91.4553 64.1847 91.0867 64.2579 90.7145 64.2577H74.9059C74.5337 64.2579 74.1651 64.1847 73.8212 64.0422C73.4772 63.8997 73.1647 63.6907 72.9015 63.4273C72.6382 63.1638 72.4293 62.851 72.2869 62.5066C72.1444 62.1623 72.071 61.7933 72.071 61.4205V60.8218H67.4169C66.5042 60.8218 65.6288 61.1849 64.9834 61.8311C64.3379 62.4774 63.9753 63.354 63.9753 64.268V140.975C63.9753 141.889 64.3379 142.766 64.9834 143.412C65.6288 144.058 66.5042 144.421 67.4169 144.421H98.5202C99.433 144.421 100.308 144.058 100.954 143.412C101.599 142.766 101.962 141.889 101.962 140.975V64.2739C101.963 63.8208 101.874 63.372 101.702 62.9533C101.529 62.5345 101.276 62.1539 100.956 61.8332C100.636 61.5126 100.257 61.2582 99.8386 61.0847C99.4207 60.9111 98.9727 60.8218 98.5202 60.8218Z" fill="white"/>
<path d="M83.541 60.8348H78.4018C78.15 60.8348 77.9458 61.0393 77.9458 61.2914V61.608C77.9458 61.8602 78.15 62.0646 78.4018 62.0646H83.541C83.7928 62.0646 83.997 61.8602 83.997 61.608V61.2914C83.997 61.0393 83.7928 60.8348 83.541 60.8348Z" fill="#FEFEFE"/>
<path d="M85.6088 62.1481C85.994 62.1481 86.3062 61.8354 86.3062 61.4497C86.3062 61.0641 85.994 60.7514 85.6088 60.7514C85.2236 60.7514 84.9114 61.0641 84.9114 61.4497C84.9114 61.8354 85.2236 62.1481 85.6088 62.1481Z" fill="#FEFEFE"/>
<path d="M82.3891 111.586C86.9165 111.586 90.5866 107.911 90.5866 103.377C90.5866 98.844 86.9165 95.1689 82.3891 95.1689C77.8618 95.1689 74.1917 98.844 74.1917 103.377C74.1917 107.911 77.8618 111.586 82.3891 111.586Z" fill="white"/>
<path d="M93.1726 84.2501C93.1725 86.42 92.5298 88.5411 91.3259 90.3452C90.1219 92.1493 88.4108 93.5554 86.4087 94.3857C84.4067 95.216 82.2038 95.4332 80.0785 95.0098C77.9532 94.5865 76.001 93.5415 74.4688 92.0071C72.9366 90.4728 71.8931 88.5179 71.4705 86.3897C71.0478 84.2616 71.2648 82.0557 72.0941 80.051C72.9235 78.0464 74.3278 76.333 76.1296 75.1276C77.9314 73.9221 80.0497 73.2787 82.2166 73.2788C83.6554 73.2789 85.0801 73.5627 86.4094 74.1141C87.7386 74.6654 88.9464 75.4736 89.9638 76.4924C90.9811 77.5112 91.7881 78.7206 92.3387 80.0517C92.8892 81.3828 93.1726 82.8094 93.1726 84.2501ZM80.9501 90.0573L89.0774 81.9191C89.1432 81.8534 89.1954 81.7754 89.231 81.6895C89.2666 81.6036 89.2849 81.5115 89.2849 81.4184C89.2849 81.3254 89.2666 81.2333 89.231 81.1474C89.1954 81.0615 89.1432 80.9835 89.0774 80.9178L88.0774 79.9238C88.0119 79.858 87.9341 79.8057 87.8484 79.7701C87.7628 79.7345 87.6709 79.7161 87.5781 79.7161C87.4853 79.7161 87.3935 79.7345 87.3078 79.7701C87.2221 79.8057 87.1443 79.858 87.0788 79.9238L80.4502 86.5614L77.3551 83.4549C77.2223 83.3226 77.0425 83.2483 76.8551 83.2483C76.6678 83.2483 76.488 83.3226 76.3552 83.4549L75.3552 84.4621C75.223 84.5952 75.1489 84.7752 75.1489 84.9628C75.1489 85.1504 75.223 85.3304 75.3552 85.4635L79.9504 90.0632C80.016 90.129 80.0939 90.1813 80.1797 90.2169C80.2655 90.2526 80.3575 90.271 80.4504 90.271C80.5433 90.271 80.6352 90.2526 80.721 90.2169C80.8068 90.1813 80.8848 90.129 80.9504 90.0632L80.9501 90.0573Z" fill="#0EC244"/>
</g>
<defs>
<linearGradient id="paint0_linear_1_2145" x1="127.697" y1="2.75892" x2="16.7069" y2="143.934" gradientUnits="userSpaceOnUse">
<stop stop-color="#0EC244"/>
<stop offset="1" stop-color="#00B837"/>
</linearGradient>
<linearGradient id="paint1_linear_1_2145" x1="127.697" y1="2.75892" x2="16.7069" y2="143.934" gradientUnits="userSpaceOnUse">
<stop stop-color="#1A72DD"/>
<stop offset="1" stop-color="#244DBB"/>
</linearGradient>
<linearGradient id="paint2_linear_1_2145" x1="127.697" y1="2.75892" x2="16.7069" y2="143.934" gradientUnits="userSpaceOnUse">
<stop stop-color="#0EC244"/>
<stop offset="1" stop-color="#0EC244"/>
</linearGradient>
</defs>
</svg>
