<svg width="162" height="187" viewBox="0 0 162 187" fill="none" xmlns="http://www.w3.org/2000/svg">
<g opacity="0.5">
<path opacity="0.5" d="M92.0057 0.145203L3.62548 0.356285C2.66243 0.358192 1.73955 0.735985 1.05971 1.40662C0.379874 2.07726 -0.00129222 2.98585 3.29164e-06 3.93269L0.402562 164.098C0.403842 164.567 0.499079 165.032 0.682827 165.464C0.866576 165.897 1.13524 166.29 1.47349 166.621C1.81173 166.952 2.21292 167.214 2.65416 167.392C3.09541 167.571 3.56805 167.662 4.04512 167.66L92.4254 167.449C93.3884 167.447 94.311 167.068 94.9904 166.397C95.6698 165.726 96.0504 164.817 96.0484 163.871L95.6385 3.70481C95.6353 2.75965 95.2511 1.85427 94.5702 1.18706C93.8893 0.519844 92.9671 0.145197 92.0057 0.145203Z" fill="url(#paint0_linear_1_1657)"/>
<path opacity="0.5" d="M91.024 0.00800328L4.61774 0.215577C2.77984 0.219993 1.29356 1.68839 1.29805 3.49533L1.69223 162.099C1.69672 163.906 3.19028 165.367 5.02819 165.363L91.4344 165.155C93.2723 165.151 94.7586 163.682 94.7541 161.875L94.3599 3.27177C94.3554 1.46483 92.8619 0.00358808 91.024 0.00800328Z" fill="#DEDEDE"/>
<path opacity="0.5" d="M92.1301 45.7717L92.0374 7.63306C92.0348 6.71168 91.6602 5.829 90.9959 5.17906C90.3316 4.52911 89.432 4.16509 88.4948 4.167L71.2091 4.20778C70.9447 5.95971 70.0512 7.56076 68.6904 8.72134C67.3296 9.88192 65.5913 10.5254 63.7898 10.5354L31.646 10.6122C29.8445 10.6109 28.103 9.97586 26.7363 8.82187C25.3697 7.66789 24.4682 6.07117 24.195 4.32051L7.16792 4.36129C6.23074 4.36383 5.33294 4.73213 4.67186 5.38522C4.01078 6.03831 3.64052 6.92276 3.64246 7.84414L3.73762 46.3043L4.01331 157.76C4.01783 158.682 4.39429 159.564 5.05995 160.212C5.72561 160.861 6.62598 161.223 7.56316 161.219L88.8901 161.025C89.8243 161.02 90.7185 160.651 91.3772 160C92.036 159.349 92.4058 158.468 92.4058 157.549L92.1301 45.7717Z" fill="#0EC244"/>
<path opacity="0.5" d="M56.8651 6.09278L37.1053 6.3844C36.8359 6.38838 36.6207 6.60636 36.6248 6.87128L36.6296 7.18547C36.6336 7.45039 36.8553 7.66192 37.1248 7.65795L56.8846 7.36633C57.154 7.36235 57.3692 7.14437 57.3652 6.87945L57.3604 6.56526C57.3563 6.30034 57.1346 6.08881 56.8651 6.09278Z" fill="#DBDBDB"/>
<path opacity="0.5" d="M61.7797 7.2942C62.2095 7.28786 62.5527 6.94018 62.5462 6.51763C62.5398 6.09508 62.1861 5.75769 61.7563 5.76403C61.3266 5.77037 60.9834 6.11805 60.9898 6.5406C60.9963 6.96314 61.3499 7.30054 61.7797 7.2942Z" fill="#DBDBDB"/>
<path opacity="0.5" d="M83.8521 24.841H40.5244V28.2375H83.8521V24.841Z" fill="#0EC244"/>
<path opacity="0.5" d="M83.8521 31.634H40.5244V35.0305H83.8521V31.634Z" fill="#0EC244"/>
<path opacity="0.5" d="M19.0521 36.6184C23.5714 36.6184 27.235 32.9993 27.235 28.535C27.235 24.0706 23.5714 20.4515 19.0521 20.4515C14.5328 20.4515 10.8691 24.0706 10.8691 28.535C10.8691 32.9993 14.5328 36.6184 19.0521 36.6184Z" fill="#F5F5F5"/>
<path opacity="0.5" d="M22.5775 34.1934H15.4803C15.1398 34.1959 14.8049 34.2792 14.5042 34.4362C14.2035 34.5933 13.9458 34.8193 13.7529 35.0953C15.3477 35.9948 17.1522 36.4729 18.9907 36.4829C20.8292 36.493 22.639 36.0348 24.2439 35.1528C24.0637 34.8742 23.8185 34.6418 23.5287 34.475C23.2389 34.3081 22.9129 34.2116 22.5775 34.1934Z" fill="#448BE2"/>
<path opacity="0.5" d="M15.5388 28.7412C15.5388 28.7412 14.4995 31.7156 13.931 31.4373C13.931 31.4373 19.4058 36.0859 24.239 31.4373C23.6574 30.4601 22.9587 29.5549 22.1579 28.7412H15.5388Z" fill="#333333"/>
<path opacity="0.5" d="M19.0472 32.4615C21.2934 32.4615 23.1143 30.6713 23.1143 28.4629C23.1143 26.2546 21.2934 24.4644 19.0472 24.4644C16.801 24.4644 14.9801 26.2546 14.9801 28.4629C14.9801 30.6713 16.801 32.4615 19.0472 32.4615Z" fill="#333333"/>
<path opacity="0.1" d="M17.6174 32.8069H20.4549V33.8911C20.4549 34.2309 20.3176 34.5567 20.0733 34.7969C19.8289 35.0371 19.4976 35.172 19.152 35.172H18.9081C18.5625 35.172 18.2311 35.0371 17.9868 34.7969C17.7425 34.5567 17.6052 34.2309 17.6052 33.8911V32.8069H17.6174Z" fill="black"/>
<path opacity="0.5" d="M17.9175 32.7397H20.1572C20.2368 32.7397 20.3131 32.7708 20.3694 32.8262C20.4257 32.8815 20.4573 32.9565 20.4573 33.0348V33.8311C20.4573 34.1708 20.32 34.4966 20.0757 34.7369C19.8314 34.9771 19.5 35.112 19.1544 35.112H18.9105C18.5666 35.1095 18.2378 34.9734 17.9955 34.7335C17.7533 34.4935 17.6174 34.1692 17.6174 33.8311V33.042C17.6164 33.0026 17.6235 32.9635 17.6381 32.9269C17.6527 32.8902 17.6747 32.8569 17.7027 32.8287C17.7306 32.8005 17.764 32.7781 17.8009 32.7629C17.8378 32.7476 17.8775 32.7397 17.9175 32.7397Z" fill="#FDA57D"/>
<path opacity="0.1" d="M17.6248 33.1428C18.5401 33.4764 19.5468 33.4764 20.4622 33.1428V32.819H17.6248V33.1428Z" fill="black"/>
<path opacity="0.5" d="M19.0472 33.3299C21.2934 33.3299 23.1143 31.5397 23.1143 29.3313C23.1143 27.123 21.2934 25.3328 19.0472 25.3328C16.801 25.3328 14.9801 27.123 14.9801 29.3313C14.9801 31.5397 16.801 33.3299 19.0472 33.3299Z" fill="#FDA57D"/>
<path opacity="0.5" d="M15.1606 27.8129H22.9142C22.9142 27.8129 22.253 24.7355 19.3204 24.9346C16.3878 25.1336 15.1606 27.8129 15.1606 27.8129Z" fill="#333333"/>
<path opacity="0.5" d="M15.0654 29.859C15.2743 29.859 15.4436 29.5465 15.4436 29.161C15.4436 28.7755 15.2743 28.463 15.0654 28.463C14.8566 28.463 14.6873 28.7755 14.6873 29.161C14.6873 29.5465 14.8566 29.859 15.0654 29.859Z" fill="#FDA57D"/>
<path opacity="0.5" d="M23.0094 29.859C23.2182 29.859 23.3876 29.5465 23.3876 29.161C23.3876 28.7755 23.2182 28.463 23.0094 28.463C22.8005 28.463 22.6312 28.7755 22.6312 29.161C22.6312 29.5465 22.8005 29.859 23.0094 29.859Z" fill="#FDA57D"/>
<path opacity="0.1" d="M15.1606 27.9185H22.9142C22.9142 27.9185 22.253 24.841 19.3204 25.0401C16.3878 25.2392 15.1606 27.9185 15.1606 27.9185Z" fill="black"/>
<path opacity="0.5" d="M83.8521 50.713H40.5244V54.1095H83.8521V50.713Z" fill="#0EC244"/>
<path opacity="0.5" d="M83.8521 57.5059H40.5244V60.9024H83.8521V57.5059Z" fill="#0EC244"/>
<path opacity="0.5" d="M19.0521 62.4903C23.5714 62.4903 27.235 58.8712 27.235 54.4068C27.235 49.9425 23.5714 46.3234 19.0521 46.3234C14.5328 46.3234 10.8691 49.9425 10.8691 54.4068C10.8691 58.8712 14.5328 62.4903 19.0521 62.4903Z" fill="#0EC244"/>
<path opacity="0.5" d="M83.8521 76.5848H40.5244V79.9813H83.8521V76.5848Z" fill="#0EC244"/>
<path opacity="0.5" d="M83.8521 83.3779H40.5244V86.7744H83.8521V83.3779Z" fill="#0EC244"/>
<path opacity="0.5" d="M19.0521 88.3623C23.5714 88.3623 27.235 84.7432 27.235 80.2788C27.235 75.8144 23.5714 72.1953 19.0521 72.1953C14.5328 72.1953 10.8691 75.8144 10.8691 80.2788C10.8691 84.7432 14.5328 88.3623 19.0521 88.3623Z" fill="#0EC244"/>
<path opacity="0.5" d="M83.8521 102.457H40.5244V105.853H83.8521V102.457Z" fill="#0EC244"/>
<path opacity="0.5" d="M83.8521 109.25H40.5244V112.646H83.8521V109.25Z" fill="#0EC244"/>
<path opacity="0.5" d="M19.0521 114.234C23.5714 114.234 27.235 110.615 27.235 106.151C27.235 101.686 23.5714 98.0673 19.0521 98.0673C14.5328 98.0673 10.8691 101.686 10.8691 106.151C10.8691 110.615 14.5328 114.234 19.0521 114.234Z" fill="#0EC244"/>
<path opacity="0.5" d="M83.8521 128.329H40.5244V131.725H83.8521V128.329Z" fill="#0EC244"/>
<path opacity="0.5" d="M83.8521 135.122H40.5244V138.518H83.8521V135.122Z" fill="#0EC244"/>
<path opacity="0.5" d="M19.0521 140.106C23.5714 140.106 27.235 136.487 27.235 132.023C27.235 127.558 23.5714 123.939 19.0521 123.939C14.5328 123.939 10.8691 127.558 10.8691 132.023C10.8691 136.487 14.5328 140.106 19.0521 140.106Z" fill="#0EC244"/>
</g>
<path d="M148.889 20.2667L60.506 20.4778C59.5429 20.4804 58.6203 20.8588 57.9409 21.5298C57.2615 22.2009 56.881 23.1098 56.8829 24.0566L57.2855 183.438C57.2868 183.907 57.382 184.371 57.5658 184.804C57.7495 185.237 58.0182 185.63 58.3564 185.961C58.6947 186.291 59.0959 186.553 59.5371 186.732C59.9784 186.91 60.451 187.001 60.9281 187L149.313 186.789C150.275 186.785 151.195 186.407 151.873 185.737C152.552 185.067 152.932 184.16 152.931 183.215L152.529 23.8335C152.528 23.3643 152.433 22.8998 152.25 22.4666C152.067 22.0333 151.799 21.6398 151.46 21.3086C151.122 20.9773 150.721 20.7148 150.28 20.5361C149.839 20.3573 149.366 20.2658 148.889 20.2667Z" fill="url(#paint1_linear_1_1657)"/>
<path d="M147.938 19.5985L61.5314 19.8061C59.6935 19.8105 58.2073 21.2789 58.2117 23.0858L58.6059 181.69C58.6104 183.496 60.104 184.958 61.9419 184.953L148.348 184.746C150.186 184.741 151.672 183.273 151.668 181.466L151.274 22.8623C151.269 21.0553 149.776 19.5941 147.938 19.5985Z" fill="white"/>
<path d="M149.013 65.3712L148.92 26.9614C148.918 26.04 148.543 25.1574 147.879 24.5074C147.215 23.8575 146.315 23.4935 145.378 23.4954L128.087 23.5361C127.823 25.2881 126.929 26.8891 125.569 28.0497C124.208 29.2103 122.469 29.8538 120.668 29.8638L88.5266 29.9406C86.7251 29.9393 84.9836 29.3042 83.6169 28.1502C82.2503 26.9963 81.3489 25.3995 81.0756 23.6489L64.0485 23.6897C63.1114 23.6922 62.2136 24.0605 61.5525 24.7136C60.8914 25.3667 60.5211 26.2511 60.5231 27.1725L60.6182 65.6326" fill="#FAFAFA"/>
<path d="M60.6182 65.635L60.8939 177.091C60.8964 178.012 61.271 178.895 61.9353 179.545C62.5996 180.195 63.4992 180.559 64.4364 180.557L145.763 180.363C146.7 180.36 147.598 179.992 148.259 179.339C148.92 178.686 149.291 177.801 149.289 176.88L149.011 65.1025" fill="#FAFAFA"/>
<path d="M85.7136 39.4752H68.4352V56.4625H85.7136V39.4752Z" fill="#E0E0E0"/>
<g opacity="0.5">
<path opacity="0.5" d="M162 70.5739H47.9095V108.729H162V70.5739Z" fill="url(#paint2_linear_1_1657)"/>
</g>
<path d="M160.643 72.1426H49.2684V107.422H160.643V72.1426Z" fill="white"/>
<path d="M137.014 85.2081H93.6868V88.6046H137.014V85.2081Z" fill="#0EC244"/>
<path d="M137.014 92.0035H93.6868V95.4H137.014V92.0035Z" fill="#0EC244"/>
<path d="M137.014 122.841H93.6868V126.237H137.014V122.841Z" fill="#E0E0E0"/>
<path d="M137.014 129.634H93.6868V133.03H137.014V129.634Z" fill="#EEEEEE"/>
<path d="M125.052 53.0636H105.649V59.0746H125.052V53.0636Z" fill="#0EC244"/>
<path d="M72.2144 96.9854C76.7338 96.9854 80.3974 93.3663 80.3974 88.902C80.3974 84.4376 76.7338 80.8185 72.2144 80.8185C67.6951 80.8185 64.0315 84.4376 64.0315 88.902C64.0315 93.3663 67.6951 96.9854 72.2144 96.9854Z" fill="#F5F5F5"/>
<path d="M75.7399 94.5604H68.6402C68.2997 94.563 67.9649 94.6463 67.6641 94.8033C67.3634 94.9603 67.1057 95.1864 66.9128 95.4623C68.5076 96.3618 70.3121 96.8399 72.1506 96.85C73.9891 96.8601 75.799 96.4018 77.4038 95.5199C77.2238 95.2416 76.9791 95.0094 76.6897 94.8426C76.4004 94.6757 76.0748 94.579 75.7399 94.5604Z" fill="#448BE2"/>
<path d="M68.7012 89.1107C68.7012 89.1107 67.6618 92.0851 67.0934 91.8068C67.0934 91.8068 72.5682 96.4554 77.4014 91.8068C76.8197 90.8296 76.121 89.9244 75.3202 89.1107H68.7012Z" fill="#333333"/>
<path d="M72.2095 92.831C74.4557 92.831 76.2766 91.0408 76.2766 88.8324C76.2766 86.6241 74.4557 84.8339 72.2095 84.8339C69.9634 84.8339 68.1425 86.6241 68.1425 88.8324C68.1425 91.0408 69.9634 92.831 72.2095 92.831Z" fill="#333333"/>
<path opacity="0.1" d="M70.7799 93.1764H73.6173V94.2606C73.6173 94.6003 73.4801 94.9261 73.2358 95.1663C72.9914 95.4065 72.66 95.5415 72.3145 95.5415H72.0705C71.725 95.5415 71.3936 95.4065 71.1493 95.1663C70.905 94.9261 70.7677 94.6003 70.7677 94.2606V93.1764H70.7799Z" fill="black"/>
<path d="M71.08 93.1093H73.3197C73.3993 93.1093 73.4756 93.1403 73.5319 93.1957C73.5882 93.251 73.6198 93.326 73.6198 93.4043V94.1934C73.6201 94.3621 73.5866 94.5291 73.5211 94.6849C73.4556 94.8407 73.3595 94.9823 73.2382 95.1016C73.1169 95.2208 72.9729 95.3153 72.8144 95.3797C72.6559 95.4441 72.486 95.477 72.3145 95.4767H72.0705C71.725 95.4767 71.3936 95.3418 71.1493 95.1016C70.905 94.8614 70.7677 94.5356 70.7677 94.1958V93.4067C70.7677 93.3679 70.7755 93.3296 70.7905 93.2938C70.8056 93.258 70.8277 93.2255 70.8556 93.1981C70.8835 93.1707 70.9165 93.1489 70.953 93.1341C70.9894 93.1193 71.0284 93.1117 71.0678 93.1117L71.08 93.1093Z" fill="#FDA57D"/>
<path opacity="0.1" d="M70.7847 93.505C71.7 93.8386 72.7067 93.8386 73.6221 93.505V93.162H70.7847V93.505Z" fill="black"/>
<path d="M72.2095 93.697C74.4557 93.697 76.2766 91.9067 76.2766 89.6984C76.2766 87.4901 74.4557 85.6998 72.2095 85.6998C69.9634 85.6998 68.1425 87.4901 68.1425 89.6984C68.1425 91.9067 69.9634 93.697 72.2095 93.697Z" fill="#FDA57D"/>
<path d="M68.3132 88.1825H76.0668C76.0668 88.1825 75.4056 85.105 72.473 85.3041C69.5404 85.5031 68.3132 88.1825 68.3132 88.1825Z" fill="#333333"/>
<path d="M68.2279 90.2261C68.4367 90.2261 68.6061 89.9136 68.6061 89.5281C68.6061 89.1426 68.4367 88.8301 68.2279 88.8301C68.019 88.8301 67.8497 89.1426 67.8497 89.5281C67.8497 89.9136 68.019 90.2261 68.2279 90.2261Z" fill="#FDA57D"/>
<path d="M76.1692 90.2261C76.378 90.2261 76.5473 89.9136 76.5473 89.5281C76.5473 89.1426 76.378 88.8301 76.1692 88.8301C75.9603 88.8301 75.791 89.1426 75.791 89.5281C75.791 89.9136 75.9603 90.2261 76.1692 90.2261Z" fill="#FDA57D"/>
<path opacity="0.1" d="M68.3132 88.2855H76.0668C76.0668 88.2855 75.4056 85.2081 72.473 85.4071C69.5404 85.6062 68.3132 88.2855 68.3132 88.2855Z" fill="black"/>
<path d="M77.5306 134.879C82.0499 134.879 85.7136 131.26 85.7136 126.796C85.7136 122.332 82.0499 118.713 77.5306 118.713C73.0113 118.713 69.3477 122.332 69.3477 126.796C69.3477 131.26 73.0113 134.879 77.5306 134.879Z" fill="#E0E0E0"/>
<path d="M137.014 39.4752H93.6868V42.8717H137.014V39.4752Z" fill="#E0E0E0"/>
<path d="M137.014 46.2706H93.6868V49.6671H137.014V46.2706Z" fill="#E0E0E0"/>
<path d="M113.747 25.4335L93.9868 25.7252C93.7173 25.7291 93.5022 25.9471 93.5062 26.212L93.511 26.5262C93.5151 26.7911 93.7368 27.0027 94.0062 26.9987L113.766 26.7071C114.036 26.7031 114.251 26.4851 114.247 26.2202L114.242 25.906C114.238 25.6411 114.016 25.4296 113.747 25.4335Z" fill="#DBDBDB"/>
<path d="M118.661 26.6373C119.091 26.631 119.434 26.2833 119.428 25.8608C119.421 25.4382 119.068 25.1008 118.638 25.1072C118.208 25.1135 117.865 25.4612 117.871 25.8837C117.878 26.3063 118.232 26.6437 118.661 26.6373Z" fill="#DBDBDB"/>
<defs>
<linearGradient id="paint0_linear_1_1657" x1="10.8552" y1="170.785" x2="83.074" y2="-3.85755" gradientUnits="userSpaceOnUse">
<stop stop-color="#808080" stop-opacity="0.25"/>
<stop offset="0.54" stop-color="#808080" stop-opacity="0.12"/>
<stop offset="1" stop-color="#808080" stop-opacity="0.1"/>
</linearGradient>
<linearGradient id="paint1_linear_1_1657" x1="53629.8" y1="142819" x2="121280" y2="50794.7" gradientUnits="userSpaceOnUse">
<stop stop-color="#808080" stop-opacity="0.25"/>
<stop offset="0.54" stop-color="#808080" stop-opacity="0.12"/>
<stop offset="1" stop-color="#808080" stop-opacity="0.1"/>
</linearGradient>
<linearGradient id="paint2_linear_1_1657" x1="49127.3" y1="17364.2" x2="49127.3" y2="11295.2" gradientUnits="userSpaceOnUse">
<stop stop-color="#808080" stop-opacity="0.25"/>
<stop offset="0.54" stop-color="#808080" stop-opacity="0.12"/>
<stop offset="1" stop-color="#808080" stop-opacity="0.1"/>
</linearGradient>
</defs>
</svg>
